<svg xmlns="http://www.w3.org/2000/svg" viewBox="0 0 110 50"><path fill="#b8ecbc" d="M88.356 35.668l-14-14.2.6-2.9 16-16 2.2-1.3 3.6 1.8 2.1 2.3-.8 3.3 1.1 2.6 2.2 1.3 1.9-.8 1.3-.4 3.8 3.5.3 2.6-14.3 15.2-2.8 3.1-3.2-.1z"/><path fill="#fc655f" d="M74.456 21.468l14.2 14.2-.5 2.3-6.2 7.3-3.1 3-3.9-.1-3.4-4.1.4-1.8-.4-2.9-1.9-1.7-3.9.6-2.6-1.8c0-.2-1.5-2.5-1.5-2.5l-.4-1.9 1.6-1.8 4.9-5.1 2.6-2.5 1-.6 3.1-.6z"/><g fill="#fff"><circle cx="85.856" cy="19.068" r="1.7"/><circle cx="96.856" cy="18.768" r="1.7"/></g><path d="M76.3 49.4c-1.3-.3-2.5-1-3.3-2-.7-.8-1.5-1.5-2.3-2.3-.5-.3-.6-.9-.2-1.4 0-.1.1-.1.2-.2 1.1-1.2 1-3-.2-4a2.91 2.91 0 0 0-3.9 0 1.08 1.08 0 0 1-1.4.2c-.1-.1-.2-.1-.2-.2l-3-3c-1.7-1.7-1.8-4.4-.2-6.2l.2-.2 8.7-8.7c.3-.3.6-.4 1-.4h1.8c.3 0 .4-.1.4-.4v-1.8c0-.4.1-.7.4-1l16-16C92 .1 94.7 0 96.5 1.6l.2.2 2.9 2.9c.5.3.6.9.3 1.4-.1.1-.1.2-.2.2-1.1 1.2-1 3 .2 4a2.91 2.91 0 0 0 3.9 0 .97.97 0 0 1 1.4-.1c.1 0 .1.1.2.2l3 3c.6.6 1 1.3 1.2 2 .1.2.1.4.1.6v.4c0 .6 0 1.1-.3 1.6-.4.9-1 1.8-1.8 2.4l-3.3 3.3c-.2.3-.6.4-.9.4-.5-.1-.9-.5-.8-1 0-.2.1-.4.3-.6l1.3-1.3 2.9-2.9c1-.9 1.1-2.5.2-3.5l-.2-.2-2.1-2.1c-.2-.2-.5-.3-.7-.1-2.3 1.2-5.2.4-6.4-1.9-.3-.6-.5-1.3-.6-2-.3-.8-.1-1.7.4-2.5.1-.2.1-.4 0-.5l-2.3-2.3c-.9-1-2.5-1-3.5-.1l-.1.1-15.6 15.6c-.2.2-.3.4-.3.6v2.4c.1.5-.3 1-.8 1.1h-.3-2.4c-.2 0-.4.1-.6.2l-8.3 8.3c-1 .9-1 2.5-.1 3.5l.1.1 2.3 2.3c.1.2.3.2.5.1h0c.9-.7 2.2-1 3.3-.6 3.6 1.1 4.6 4.6 3.2 7.1-.1.2-.1.4.1.5.8.7 1.5 1.5 2.3 2.3 1 1 2.6 1 3.6 0l8.3-8.3c.2-.2.3-.4.2-.6v-2.2c0-1 .3-1.3 1.2-1.3h2.1c.3 0 .6-.1.8-.3l4.9-4.9.4-.4a.95.95 0 0 1 1.3.2c.2.3.2.7 0 1.1-.1.1-.2.2-.3.4l-5.4 5.4c-.3.3-.7.5-1.2.5h-1.7c-.3 0-.4.1-.4.4v1.8c0 .4-.1.8-.4 1l-8.7 8.7c-.7.7-1.5 1.1-2.5 1.3h-.2c-.2 0-.5 0-.9-.1zm12.5-35.3c0-.5.3-.9.8-1s.9.2 1.1.7l.9 3.3 2.1 7.5c0 .1 0 .2.1.2.2.5 0 1.1-.5 1.2-.5.2-1.1 0-1.2-.5 0-.1 0-.1-.1-.2l-.8-2.9-2.2-7.8c-.1-.2-.2-.4-.2-.5zm10.9 4.6c0 1.6-1.3 2.9-2.9 2.8-1.6 0-2.9-1.3-2.8-2.9 0-1.6 1.3-2.8 2.9-2.8s2.8 1.3 2.8 2.9zm-2.8-1c-.5 0-.9.4-.9 1 0 .5.4.9 1 .9s.9-.4.9-1c-.1-.5-.5-.9-1-.9zM88.7 19c0 1.6-1.3 2.9-2.8 2.9-1.6 0-2.9-1.3-2.9-2.9s1.3-2.9 2.9-2.9c1.5 0 2.8 1.3 2.8 2.9zm-1.9 0c0-.5-.4-.9-.9-.9s-1 .4-1 .9.4 1 .9 1h.1c.4 0 .9-.5.9-1h0zM79 32.1c0 .3-.1.6-.3.8L75.6 36c-.3.4-1 .4-1.3.1-.4-.3-.4-1-.1-1.3l.1-.1 3.1-3.1c.3-.3.7-.4 1.1-.2.2 0 .5.3.5.7zm-7.2 1.3c-.4 0-.7-.2-.9-.6s-.1-.8.2-1.1l1.8-1.8 1.4-1.4c.3-.4.9-.5 1.3-.1h.1a.94.94 0 0 1 .1 1.3l-.1.1-3.1 3.1c-.2.3-.5.5-.8.5zm6 5.9c-.4 0-.7-.2-.9-.6s-.1-.8.2-1.1l1.9-1.9c.4-.4.8-.9 1.3-1.3.3-.4.9-.4 1.3-.1l.1.1a.94.94 0 0 1 .1 1.3l-.1.1-3.2 3.2a1.08 1.08 0 0 1-.7.3zm8.6-6.7c0 .3-.2.6-.5.8s-.7.2-.9 0a4.74 4.74 0 0 1-1-1c-.2-.3-.2-.7 0-.9.2-.3.5-.5.8-.5.8.2 1.5.8 1.6 1.6zm-5.1-5.2c.8.2 1.4.8 1.5 1.5 0 .3-.2.7-.5.8-.3.2-.7.2-1-.1-.3-.2-.6-.5-.8-.8s-.3-.7-.1-1c.2-.2.5-.4.9-.4zm-3.1-1.2a1.7 1.7 0 0 1-1.4-1.4c0-.5.5-.9 1-.9.2 0 .3 0 .4.1.3.2.6.5.8.8.2.5.1 1-.4 1.3-.1.1-.2.1-.4.1zm22.2 1.2c-.5 0-.9-.4-.9-.9s.4-.9.9-.9.9.4.9.9-.4.9-.9.9z" fill="#0f0f0f"/><circle fill="#fc655f" cx="22.3" cy="22.3" r="21"/><circle fill="#b8ecbc" cx="22.3" cy="22.3" r="17.2"/><path fill="#ffdcd5" d="M31.5 25l.8-1 2.4-.4.8 1.2.2 5V31l1-.8 1.2.2.8.6.5 1.2 1.3-.7 1.9.4 1.3 1.1 1.4-.5 1.4.6-.5 9-1.2 2.5-.6 2.8-3.1 1-8.5-.6-1.3-4.8-1.1-5.5.8-1.8 1-4.5-.5-6.2z"/><path fill="#fff" d="M13.7 22.2v-1.5l2.3-1.4 2.3 1.3 2.3 2.1 7.1-6.6 2.1.3 1.1 1.3.2 1.5-2.2 2.1-5.8 5.5-2 1.8-3-.9L14 23l-.3-.8z"/><path d="M18.4.9C7.7 2.8 0 12.4.5 23.3c.4 9.4 6.8 17.6 15.9 20.2 4.5 1.3 9.3 1.1 13.6-.6.4-.1.4 0 .5.3.4 1.2.6 2.5.6 3.8-.1 1.2.9 2.2 2.1 2.3h.2H43c1.2.1 2.2-.8 2.3-2V47c-.1-1.1.2-2.1 1-2.9.5-.6.9-1.4 1-2.2v-.2l-.1-7.5c0-1.4-1.1-2.6-2.6-2.6-.2 0-.4 0-.6.1-.4.2-.9 0-1.1-.4a.96.96 0 0 1-.2-.9c2.5-6.3 2-13.4-1.6-19.3-.2-.3-.3-.5-.5-.8-.3-.4-.8-.5-1.3-.2-.4.3-.6.8-.3 1.3a.76.76 0 0 1 .2.4c3.4 5.4 4 12.2 1.6 18.2a1.36 1.36 0 0 1-1.1.7c-.1 0-.1-.1-.2-.2s-.2-.3-.3-.4c-.3-.2-.3-.5-.2-.8 1.3-3.1 1.7-6.6 1.1-9.9-1.7-9.8-11-16.5-20.9-14.8-9.7 1.6-16.4 11-14.7 20.8.2 1 .4 2 .8 2.9.4 1.1.9 2.2 1.5 3.2.2.5.8.7 1.2.5.5-.3.6-.8.4-1.3 0-.1-.1-.2-.2-.3-2-3.5-2.6-7.6-1.7-11.5C9.2 7 23.8 2.1 33 10.2c4.4 3.9 6.2 8.9 5.4 14.8-.2 1.4-.6 2.7-1.2 4-.2.4-.4.3-.7.3s-.2-.3-.2-.5v-3.5c-.1-1.5-1.3-2.7-2.8-2.7a2.97 2.97 0 0 0-3 2.8v.2 9.6c0 .3-.1.5-.3.6-.3.2-.6.5-.7.9-.1.2-.3.4-.5.4-3.5 1.6-7.5 1.9-11.2.8-1.3-.4-2.5-.9-3.7-1.6a.95.95 0 0 0-1.3.2s0 .1-.1.1c-.3.4-.1 1 .3 1.3 0 0 .1 0 .1.1.1.1.3.2.5.3 4.7 2.6 10.2 2.9 15.2 1 .4-.2.6-.1.6.4.1.3.2.7.3 1s0 .3-.2.4c-3.2 1.3-6.8 1.7-10.2 1.1C8.5 40.5 1 30.3 2.6 19.4c.8-5.2 3.6-9.8 7.7-13 6.7-5 15.8-5.4 22.9-.8.6.4 1.1.3 1.5-.2s.2-1-.4-1.4c-2.2-1.4-4.7-2.5-7.4-3-1-.2-2-.3-2.9-.4h-.1a16.84 16.84 0 0 0-5.5.3zm26.2 42.2c-1 .9-1.4 2.3-1.2 3.6.1.6 0 .7-.6.7h-4.6-4.6c-.3 0-.6 0-.5-.4.2-2.1-.6-4-1.1-5.9-.2-.9-.5-1.7-.7-2.6-.2-.8-.1-1 .6-1.4.4-.2.7-.7.6-1.2v-10-.6c.1-.5.6-.9 1.1-.8.4.1.7.4.8.8v.6 7.6.4c0 .5.4 1 1 1 .5 0 .9-.4.9-.9v-1.8c0-.6.4-1 .9-1s.9.4.9 1.1v.9c0 .7.3 1.1.9 1.1.6.1.9-.3 1-1 0-.5.5-.8.9-.8.2 0 .3.1.4.2.2.2.4.4.4.7v1.1c0 .5.4 1 .9 1s1-.4 1-.9c.1-.7.4-1 1-.9.5 0 .8.4.8 1.1V41c.1.7-.2 1.5-.8 2.1h0zM31.8 18.5c0 .9-.3 1.7-.9 2.3l-8 8c-1.3 1.3-3.3 1.3-4.6 0l-4.6-4.6c-1.3-1.3-1.2-3.4.2-4.7 1.3-1.2 3.3-1.2 4.5 0l1.9 1.9c.2.2.3.2.6 0l5.1-5.1c1.3-1.3 3.4-1.4 4.7-.2l.3.3c.6.5.8 1.3.8 2.1zm-1.9 0c0-.6-.4-1.2-.9-1.4-.6-.2-1.2 0-1.6.4l-5.9 5.9c-.3.5-.9.6-1.4.3l-.3-.3-2.5-2.5c-.5-.6-1.4-.7-2-.1-.6.5-.7 1.4-.1 2l.1.1 4.3 4.3c.5.6 1.4.7 2 .1l.1-.1 7.7-7.7c.3-.2.5-.6.5-1h0zm-19.7 17c-.5 0-.9-.4-.9-.9s.4-.9.9-1c.5 0 1 .4 1 1 0 .5-.4.9-1 .9zM38.1 7.6c0 .5-.4.9-.9.9s-.9-.4-1-.9c0-.5.4-1 .9-1h.1c.5 0 .9.5.9 1z" fill="#0f0f0f"/></svg>