<svg xmlns="http://www.w3.org/2000/svg" width="206.528" height="41.908" viewBox="0 0 206.528 41.908"><g transform="translate(-0.462)"><g transform="translate(52.802 16.674)"><path d="M130.1,41.4h2.342l7.187,15.948L146.936,41.4h2.342L139.87,62.071h-.484Z" transform="translate(-130.1 -41.36)" fill="#0f0f0f"/><path d="M174.323,60.9A6.556,6.556,0,0,1,179.33,63a6.313,6.313,0,0,1,1.817,4.522,6.385,6.385,0,0,1-1.9,4.562,7.229,7.229,0,0,1-9.851,0,6.434,6.434,0,0,1-.081-9.044A6.452,6.452,0,0,1,174.323,60.9Zm0,1.575a4.847,4.847,0,0,0-3.593,1.494,4.785,4.785,0,0,0-1.494,3.593,5.227,5.227,0,0,0,.686,2.544,4.724,4.724,0,0,0,1.857,1.817,5.118,5.118,0,0,0,2.584.646,5.224,5.224,0,0,0,2.584-.646,4.724,4.724,0,0,0,1.857-1.817,5,5,0,0,0,.686-2.544,4.886,4.886,0,0,0-1.534-3.593A5,5,0,0,0,174.323,62.475Z" transform="translate(-152.4 -52.987)" fill="#0f0f0f"/><path d="M204.44,64.8h1.494v5.249a12.028,12.028,0,0,0,.2,2.624,2.919,2.919,0,0,0,1.252,1.615,3.839,3.839,0,0,0,2.18.606,3.921,3.921,0,0,0,2.14-.565,2.814,2.814,0,0,0,1.211-1.534,9.656,9.656,0,0,0,.242-2.745V64.8H214.7v5.491a8.818,8.818,0,0,1-.565,3.513,4.182,4.182,0,0,1-1.7,1.857,5.581,5.581,0,0,1-2.867.646,5.682,5.682,0,0,1-2.867-.646,4.291,4.291,0,0,1-1.736-1.857,8.987,8.987,0,0,1-.565-3.593l.04-5.41Z" transform="translate(-174.402 -55.312)" fill="#0f0f0f"/><path d="M245.291,66.744l-1.211.727a5.1,5.1,0,0,0-4.239-1.978,4.975,4.975,0,0,0-3.553,1.332,4.259,4.259,0,0,0-1.413,3.19,4.321,4.321,0,0,0,.646,2.3,4.769,4.769,0,0,0,1.776,1.7,5.377,5.377,0,0,0,2.544.606,5.2,5.2,0,0,0,4.239-1.978l1.211.767a5.768,5.768,0,0,1-2.261,1.9,7.45,7.45,0,0,1-3.23.686,6.648,6.648,0,0,1-4.643-1.7,5.464,5.464,0,0,1-1.857-4.118,5.717,5.717,0,0,1,.848-3.028,6.087,6.087,0,0,1,2.342-2.18,7.065,7.065,0,0,1,3.351-.767,8.5,8.5,0,0,1,2.261.323,7.215,7.215,0,0,1,1.857.888A3.827,3.827,0,0,1,245.291,66.744Z" transform="translate(-191.634 -54.954)" fill="#0f0f0f"/><path d="M266.6,54h1.494v6.339a6.722,6.722,0,0,1,2.019-1.736,5.308,5.308,0,0,1,2.382-.565,4.171,4.171,0,0,1,2.342.646,3.889,3.889,0,0,1,1.494,1.736,8.856,8.856,0,0,1,.484,3.391v5.773h-1.494v-5.37a12.132,12.132,0,0,0-.162-2.584,2.98,2.98,0,0,0-1.009-1.655,3.157,3.157,0,0,0-1.938-.565,3.881,3.881,0,0,0-2.463.848,3.8,3.8,0,0,0-1.413,2.14,13.531,13.531,0,0,0-.2,3.068v4.118H266.64V54Z" transform="translate(-211.49 -48.873)" fill="#0f0f0f"/><path d="M305.557,71.733l1.292.646a6.394,6.394,0,0,1-1.453,1.9,5.771,5.771,0,0,1-1.857,1.09,6.957,6.957,0,0,1-2.342.363,5.61,5.61,0,0,1-4.482-1.817,5.873,5.873,0,0,1-1.615-4.078,5.937,5.937,0,0,1,6.016-5.935,5.908,5.908,0,0,1,4.8,2.18,5.8,5.8,0,0,1,1.292,3.836H296.634a4.583,4.583,0,0,0,1.292,3.19,4.232,4.232,0,0,0,3.109,1.252,5.051,5.051,0,0,0,1.736-.283,4.235,4.235,0,0,0,1.453-.807A4.71,4.71,0,0,0,305.557,71.733Zm0-3.028a4.686,4.686,0,0,0-.888-1.857,4.467,4.467,0,0,0-1.534-1.13,4.876,4.876,0,0,0-2.019-.4,4.57,4.57,0,0,0-2.988,1.05,4.941,4.941,0,0,0-1.373,2.3h8.8Z" transform="translate(-228.483 -54.775)" fill="#0f0f0f"/><path d="M327.14,64.383h1.534v1.655a4.968,4.968,0,0,1,1.453-1.453,2.787,2.787,0,0,1,2.947-.121l-.807,1.211a2.355,2.355,0,0,0-.807-.2,2.2,2.2,0,0,0-1.453.606,3.914,3.914,0,0,0-1.09,1.857,16.078,16.078,0,0,0-.283,3.876v3.8H327.1V64.383Z" transform="translate(-247.563 -54.895)" fill="#0f0f0f"/><path d="M347.985,65.591l-.969.969a3.522,3.522,0,0,0-2.382-1.13,1.893,1.893,0,0,0-1.252.444,1.411,1.411,0,0,0-.525,1.09,1.617,1.617,0,0,0,.444,1.05,6.047,6.047,0,0,0,1.817,1.171,6.744,6.744,0,0,1,2.3,1.615,2.785,2.785,0,0,1,.606,1.776,3.059,3.059,0,0,1-1.009,2.342,3.57,3.57,0,0,1-2.544.969,4.51,4.51,0,0,1-1.938-.4A4.44,4.44,0,0,1,341,74.311l.969-1.05a3.274,3.274,0,0,0,2.463,1.252,2.245,2.245,0,0,0,1.534-.565,1.622,1.622,0,0,0,.646-1.292,1.592,1.592,0,0,0-.4-1.09,6.937,6.937,0,0,0-1.9-1.211,6.892,6.892,0,0,1-2.18-1.534,2.973,2.973,0,0,1-.565-1.736,2.84,2.84,0,0,1,.929-2.14,3.24,3.24,0,0,1,2.3-.848A4.633,4.633,0,0,1,347.985,65.591Z" transform="translate(-255.851 -54.892)" fill="#0f0f0f"/><path d="M382.37,45.539l-1.655,1.211a9.343,9.343,0,0,0-3.311-2.584,10.432,10.432,0,0,0-4.2-.888,10.113,10.113,0,0,0-4.643,1.13,8.487,8.487,0,0,0-3.311,3.109,8.391,8.391,0,0,0-1.171,4.36,8.031,8.031,0,0,0,2.624,6.1,10.054,10.054,0,0,0,14.05-.848l1.655,1.211a10.58,10.58,0,0,1-3.916,2.947,12.958,12.958,0,0,1-5.249,1.05,11.082,11.082,0,0,1-8.68-3.513,10.324,10.324,0,0,1-2.665-7.146,9.668,9.668,0,0,1,3.23-7.388,11.328,11.328,0,0,1,8.115-2.988,12.7,12.7,0,0,1,5.329,1.09A11.5,11.5,0,0,1,382.37,45.539Z" transform="translate(-268.313 -41.3)" fill="#0f0f0f"/><path d="M421.677,64a6,6,0,0,1,4.522,1.857,5.8,5.8,0,0,1-.121,8.156,5.9,5.9,0,0,1-4.4,1.776,5.992,5.992,0,0,1-4.441-1.776,5.779,5.779,0,0,1-1.736-4.118,5.642,5.642,0,0,1,1.615-4.037A6.308,6.308,0,0,1,421.677,64Zm0,1.413a4.554,4.554,0,0,0-4,6.823,4.239,4.239,0,0,0,1.655,1.615,4.967,4.967,0,0,0,4.6,0,4.24,4.24,0,0,0,1.655-1.615,4.413,4.413,0,0,0,.606-2.261,4.306,4.306,0,0,0-1.373-3.23A4.118,4.118,0,0,0,421.677,65.413Z" transform="translate(-300.273 -54.835)" fill="#0f0f0f"/><path d="M460.274,54V69.544H458.78V67.606a6.385,6.385,0,0,1-2.14,1.655,6.194,6.194,0,0,1-2.584.565,5.914,5.914,0,0,1-4.28-1.736,5.8,5.8,0,0,1,0-8.357A6.012,6.012,0,0,1,454.056,58a5.588,5.588,0,0,1,2.624.606,6.063,6.063,0,0,1,2.059,1.776V54Zm-6.016,5.45a4.708,4.708,0,0,0-2.342.606,4.454,4.454,0,0,0-1.7,1.655,4.567,4.567,0,0,0-.646,2.261,4.186,4.186,0,0,0,.646,2.261,4.87,4.87,0,0,0,1.7,1.7,4.752,4.752,0,0,0,4.643,0,4.356,4.356,0,0,0,1.7-1.615,4.678,4.678,0,0,0-.727-5.572A4.574,4.574,0,0,0,454.258,59.45Z" transform="translate(-319.651 -48.873)" fill="#0f0f0f"/><path d="M492.457,71.733l1.292.646a6.393,6.393,0,0,1-1.453,1.9,5.771,5.771,0,0,1-1.857,1.09,6.957,6.957,0,0,1-2.342.363,5.61,5.61,0,0,1-4.481-1.817A5.873,5.873,0,0,1,482,69.835a5.937,5.937,0,0,1,6.016-5.935,5.908,5.908,0,0,1,4.8,2.18,5.8,5.8,0,0,1,1.292,3.836H483.534a4.583,4.583,0,0,0,1.292,3.19,4.232,4.232,0,0,0,3.109,1.252,5.051,5.051,0,0,0,1.736-.283,4.235,4.235,0,0,0,1.453-.807A5.236,5.236,0,0,0,492.457,71.733Zm0-3.028a4.687,4.687,0,0,0-.888-1.857,4.468,4.468,0,0,0-1.534-1.13,4.876,4.876,0,0,0-2.019-.4,4.57,4.57,0,0,0-2.988,1.05,4.94,4.94,0,0,0-1.373,2.3h8.8Z" transform="translate(-339.924 -54.775)" fill="#0f0f0f"/></g><g transform="translate(27.366 24.305)"><path d="M74.044,60.2a6.671,6.671,0,0,1,5.087,2.1A6.583,6.583,0,0,1,79.01,71.5a6.6,6.6,0,0,1-4.966,1.978A6.691,6.691,0,0,1,69.038,71.5a6.583,6.583,0,0,1-.121-9.205A6.82,6.82,0,0,1,74.044,60.2Zm0,1.575a5.092,5.092,0,0,0-3.674,1.494,5.065,5.065,0,0,0-.848,6.177,4.563,4.563,0,0,0,1.9,1.817,5.654,5.654,0,0,0,5.249,0,5.123,5.123,0,0,0,1.9-1.817,4.824,4.824,0,0,0,.686-2.544,4.975,4.975,0,0,0-1.534-3.634A5.262,5.262,0,0,0,74.044,61.775Z" transform="translate(-67.1 -60.2)" fill="#0f0f0f"/><path d="M104.2,60.583h1.7v2.342a6.753,6.753,0,0,1,2.342-1.978,6.447,6.447,0,0,1,2.947-.646,6.7,6.7,0,0,1,4.845,1.938,6.534,6.534,0,0,1,.04,9.407,6.677,6.677,0,0,1-4.8,1.938,6.4,6.4,0,0,1-2.907-.646,6.952,6.952,0,0,1-2.382-1.857v6.783h-1.7V60.583Zm6.823,1.252a4.991,4.991,0,0,0-3.714,1.494A4.9,4.9,0,0,0,105.815,67a5.041,5.041,0,0,0,.686,2.584,4.69,4.69,0,0,0,1.938,1.817,5.69,5.69,0,0,0,2.665.686,5.262,5.262,0,0,0,2.584-.686,5.141,5.141,0,0,0,1.938-1.9,4.815,4.815,0,0,0,0-5.087,5.223,5.223,0,0,0-1.9-1.857A5.148,5.148,0,0,0,111.023,61.834Z" transform="translate(-89.221 -60.26)" fill="#0f0f0f"/></g><path d="M1.729.04C.518.121.437.888.477,1.857v22.69c0,2.221-.161,4.4.565,6.541a8.848,8.848,0,0,0,3.068,4.2,9.354,9.354,0,0,0,4.078,1.7,11.353,11.353,0,0,0,3.755-.161,8.662,8.662,0,0,0,6.823-8.277c0-.686.161-.969.929-.969,1.09.04,2.221.04,3.311,0,.606,0,.807.2.807.807.121,4.159-2.422,7.388-6.7,8.438-.4.081-.807.2-1.171.283a7.787,7.787,0,0,0,1.938.04,10.025,10.025,0,0,0,7.308-4.36c1.373-2.1,1.292-4.4,1.292-6.7,0-.565-.323-.606-.807-.606H16.95c-.646,0-.767.242-.807.807a21.377,21.377,0,0,1-.161,3.23A6.356,6.356,0,0,1,9.239,34.52c-3.23-.161-6.016-2.745-6.016-5.652-.04-8.479,0-17-.04-25.476,0-.767.646-.727,1.252-.727H7.22c.686,0,1.09.2,1.05.929-.04,2.5,0,5.006-.04,7.51,0,.646.2.848.888.807,1.776-.04,3.553,0,5.289,0,.606,0,.848.2.848.767-.04,1.09-.04,2.18,0,3.23.04.646-.242.848-.888.848-1.776-.04-3.553,0-5.289,0-.484,0-.848.04-.848.686,0,3.593-.04,7.227.04,10.82A3.777,3.777,0,0,0,11.742,32.1a19.559,19.559,0,0,1-.888-3.755c-.161-2.745-.04-5.491-.081-8.2,0-.686.242-.888.929-.848,1.736.04,3.472,0,5.208.04.606,0,.929-.121.888-.807q-.061-4.058,0-8.115c0-1.09-1.09-.929-1.9-.929H12.428c-.807,0-1.7,0-1.655-.969.04-2.18-.04-4.4.04-6.581C10.854.848,10.773.081,9.562,0Z" transform="translate(0)" fill="#0f0f0f"/></g></svg>