<svg xmlns="http://www.w3.org/2000/svg" width="98.824" height="104.132" viewBox="0 0 98.824 104.132"><g transform="translate(-1540.636 -389.04)"><path d="M1547.615,524.6l-.427-2.848,95.973-.57-.712,70.912-1.281,4.272-14.524.57h-77.32l-2.848-4.984Z" transform="translate(-4.65 -105.221)" fill="#f5f5f5"/><g transform="translate(1541.92 401.955)"><path d="M1642.668,454.529l-3.892-2.088h-88.759l-2.658,3.133-.37,14.619h95.679Z" transform="translate(-1546.979 -452.44)" fill="#fc655f"/><path d="M1546.942,539.966l.01-.38h-.01Z" transform="translate(-1546.942 -521.834)" fill="#fc655f"/></g><path d="M1639.445,406.754a6.278,6.278,0,0,0-4.464-6.017,8.155,8.155,0,0,0-2.919-.259c-.629.039-.818-.171-.8-.8q.058-2.489,0-4.98a5.491,5.491,0,0,0-2.961-4.983l-.014-.008a5.243,5.243,0,0,0-3.436-.557,4.974,4.974,0,0,0-2.471,1.056,5.645,5.645,0,0,0-2.176,4.6c-.009,1.624-.027,3.248.009,4.87v.616l-6.807-.006v-.563c.032-1.555.014-3.112.01-4.667a5.539,5.539,0,0,0-4.221-5.817,3.215,3.215,0,0,0-.639-.146,5.184,5.184,0,0,0-2.853.453,5.421,5.421,0,0,0-3.315,5.03c0,1.657-.031,3.314.009,4.97v.73l-6.857-.006v-.588c.043-1.554.018-3.111.013-4.666a5.482,5.482,0,0,0-4.238-5.785c-.068-.022-.135-.044-.2-.06a5.013,5.013,0,0,0-3,.3c-2.873,1.306-3.576,2.754-3.576,6.352v4.434l-6.844-.006v-.707c.047-1.249-.049-2.505.026-3.752.125-2.093-.276-3.95-1.823-5.29a5.689,5.689,0,0,0-5.521-1.121,4.3,4.3,0,0,0-1.235.617,5.488,5.488,0,0,0-2.455,4.545c-.035,1.724-.029,3.45,0,5.175v.523l-6.8-.006v-.459c.028-1.217-.066-2.441.021-3.652.213-2.948-.688-5.166-3.068-6.468a5.021,5.021,0,0,0-3.366-.528,3.7,3.7,0,0,0-.454.113,5.577,5.577,0,0,0-4.2,5.861c0,1.355-.074,2.716.022,4.064.076,1.065-.261,1.338-1.32,1.323-4.3-.059-6.886,2.559-6.886,6.868q0,39.492,0,78.983c0,4.229,2.61,6.821,6.859,6.821q28.764,0,57.529,0a4.983,4.983,0,0,0,.912-.027,1.448,1.448,0,0,0,1.313-1.553,1.428,1.428,0,0,0-1.4-1.464,9.877,9.877,0,0,0-1.016-.012q-28.663,0-57.326,0c-2.549,0-3.808-1.263-3.808-3.805q0-32.02-.025-64.04c0-.938.278-1.091,1.13-1.086,5.929.037,11.858.02,17.787.018a4.189,4.189,0,0,0,1.011-.05,1.515,1.515,0,0,0-.111-2.985,6.4,6.4,0,0,0-1.015-.027c-5.963,0-11.926-.013-17.889.015-.71,0-.914-.186-.906-.9.037-3.422.006-6.844.021-10.267a3.269,3.269,0,0,1,3.34-3.453c1.773-.057,1.773-.057,1.78,1.734,0,.237,0,.475.011.711a5.517,5.517,0,0,0,11.015.211,10.414,10.414,0,0,0,.032-1.827V403.5l6.8.006,0,2.28c0,.1,0,.2.009.3a5.505,5.505,0,0,0,5.474,5.207,5.44,5.44,0,0,0,5.527-5.23,12.017,12.017,0,0,0,.01-1.625v-.927l6.842.006v2.449a5.505,5.505,0,0,0,11,.014c.019-.609.031-1.221,0-1.829v-.624l6.849.006,0,2.516a5.507,5.507,0,0,0,10.872.955,12.351,12.351,0,0,0,.143-2.833v-.628l6.8.006v.686c0,.667-.007,1.34.055,2a5.741,5.741,0,0,0,5.265,5.051,5.468,5.468,0,0,0,5.62-4.5,17.475,17.475,0,0,0,.128-2.533c.011-.274-.111-.594.333-.731a3.657,3.657,0,0,1,4.779,3.436c.02,3.32-.033,6.642.03,9.961.018.962-.2,1.232-1.2,1.23q-32.475-.049-64.949-.024c-1.63,0-2.383.493-2.368,1.546s.758,1.519,2.4,1.519q32.474,0,64.949-.02c.91,0,1.168.206,1.167,1.149q-.044,31.969-.023,63.939c0,2.6-1.249,3.843-3.873,3.845q-9.961,0-19.922,0a5.613,5.613,0,0,0-.913.02,1.424,1.424,0,0,0-1.316,1.434,1.443,1.443,0,0,0,1.185,1.552,3.014,3.014,0,0,0,.808.048q10.323,0,20.645,0a6.489,6.489,0,0,0,1.167-.094,6.3,6.3,0,0,0,5.278-6.619q.006-31.258,0-62.516C1639.455,418.206,1639.47,412.48,1639.445,406.754Z"/><path d="M1600.764,417.662a2.46,2.46,0,1,1-4.9-.034q-.038-5.325,0-10.651a2.488,2.488,0,0,1,2.017-2.665,2.458,2.458,0,0,1,2.615,1.32,3.372,3.372,0,0,1,.271,1.582c.007,1.724,0,3.449,0,5.173C1600.772,414.146,1600.8,415.9,1600.764,417.662Z" transform="translate(-43.967 -12.127)" fill="#fff"/><path d="M1688.352,417.752a2.391,2.391,0,0,1-2.38,2.6,2.428,2.428,0,0,1-2.5-2.6q-.038-5.427,0-10.854a2.484,2.484,0,0,1,2.5-2.62,2.454,2.454,0,0,1,2.377,2.626c.023,1.826.005,3.652.005,5.478C1688.357,414.168,1688.375,415.96,1688.352,417.752Z" transform="translate(-113.724 -12.129)" fill="#fff"/><path d="M1776.064,417.649a2.454,2.454,0,1,1-4.883.011c-.013-1.792,0-3.585,0-5.377,0-1.758-.01-3.517,0-5.276a2.456,2.456,0,1,1,4.883-.011Q1776.082,412.323,1776.064,417.649Z" transform="translate(-183.577 -12.134)" fill="#fff"/><path d="M1863.716,417.778a2.42,2.42,0,0,1-2.527,2.574,2.394,2.394,0,0,1-2.353-2.624c-.021-1.826,0-3.652,0-5.478,0-1.758-.014-3.517,0-5.275a2.452,2.452,0,1,1,4.883-.051Q1863.755,412.35,1863.716,417.778Z" transform="translate(-253.374 -12.132)" fill="#fff"/><path d="M1951.248,417.661a2.515,2.515,0,0,1-1.718,2.594,2.474,2.474,0,0,1-2.71-.895,2.9,2.9,0,0,1-.476-1.828c0-1.758,0-3.516,0-5.274s-.022-3.517.008-5.274a2.462,2.462,0,1,1,4.9.027Q1951.287,412.336,1951.248,417.661Z" transform="translate(-323.058 -12.129)" fill="#fff"/><path d="M1893.424,790.9c.007,1.377.542,1.886,1.933,1.9,1.692.014,3.385,0,5.077,0,1.726,0,3.452.012,5.178,0,1.358-.012,1.917-.567,1.921-1.917q.016-5.128,0-10.256c0-1.376-.543-1.94-1.891-1.946q-5.179-.022-10.357,0c-1.314.006-1.854.54-1.861,1.865Q1893.4,785.721,1893.424,790.9Z" transform="translate(-280.914 -310.258)"/><path d="M1909.272,793.71q3.252.027,6.5,0c.561-.005.786.167.765.755-.038,1.083-.011,2.168-.011,3.252s-.027,2.169.011,3.252c.021.589-.206.76-.766.754q-3.251-.032-6.5,0c-.518,0-.724-.17-.719-.7q.027-3.3,0-6.606C1908.548,793.879,1908.755,793.706,1909.272,793.71Z" transform="translate(-292.971 -322.236)" fill="#b9f07d"/><path d="M1603.621,790.809c.008,1.435.535,1.984,1.95,1.989q5.128.017,10.256,0c1.333-.005,1.894-.527,1.9-1.825q.034-5.23,0-10.46c-.008-1.308-.56-1.83-1.892-1.835q-5.178-.021-10.357,0c-1.3.006-1.846.576-1.858,1.874-.015,1.726,0,3.453,0,5.179C1603.618,787.424,1603.611,789.116,1603.621,790.809Z" transform="translate(-50.15 -310.258)"/><path d="M1619.344,793.707c2.168.017,4.336.021,6.5,0,.566-.006.789.175.772.755-.032,1.083-.009,2.168-.009,3.252s-.023,2.169.009,3.252c.017.581-.207.761-.772.755-2.168-.024-4.336-.02-6.5,0-.516,0-.718-.163-.712-.7q.034-3.3,0-6.606C1618.625,793.869,1618.828,793.7,1619.344,793.707Z" transform="translate(-62.107 -322.233)" fill="#b9f07d"/><path d="M1893.429,692.845c.016,1.4.512,1.911,1.9,1.918q5.128.027,10.255,0c1.434-.007,1.951-.543,1.955-1.976q.012-5.078,0-10.155c0-1.431-.539-1.967-1.959-1.97q-5.077-.01-10.154,0c-1.488,0-1.989.508-2,2.027-.012,1.659,0,3.317,0,4.976C1893.424,689.393,1893.409,691.119,1893.429,692.845Z" transform="translate(-280.92 -232.215)"/><path d="M1909.264,695.636q3.3.033,6.6,0c.566-.006.68.238.669.731-.023,1.083-.007,2.167-.007,3.251s-.016,2.168.007,3.251c.01.484-.084.754-.659.748q-3.352-.035-6.7,0c-.514,0-.621-.232-.618-.68.012-2.2.016-4.4,0-6.6C1908.547,695.8,1908.741,695.631,1909.264,695.636Z" transform="translate(-292.97 -244.141)" fill="#b9f07d"/><path d="M1605.5,596.764c1.726.012,3.452,0,5.178,0,1.76,0,3.52.014,5.28-.005,1.192-.013,1.751-.538,1.759-1.74q.038-5.28,0-10.561c-.008-1.258-.558-1.765-1.827-1.769q-5.229-.015-10.458,0c-1.251,0-1.812.546-1.818,1.785q-.023,5.229,0,10.459C1603.622,596.226,1604.179,596.754,1605.5,596.764Z" transform="translate(-50.143 -154.199)"/><path d="M1618.621,598.346c0-.467.135-.662.63-.658q3.343.027,6.687,0c.459,0,.67.121.666.621-.018,2.229-.023,4.459,0,6.688.007.572-.249.667-.735.656-1.08-.025-2.161-.008-3.242-.008s-2.162-.023-3.242.01c-.546.016-.781-.119-.773-.724C1618.646,602.737,1618.637,600.541,1618.621,598.346Z" transform="translate(-62.095 -166.145)" fill="#b9f07d"/><path d="M1907.529,584.494c-.005-1.247-.562-1.789-1.8-1.8-1.726-.014-3.452,0-5.178,0-1.76,0-3.52-.009-5.28,0-1.283.009-1.832.5-1.841,1.755q-.036,5.28,0,10.561c.008,1.207.562,1.748,1.744,1.753q5.28.024,10.56,0c1.239,0,1.794-.561,1.8-1.81Q1907.552,589.723,1907.529,584.494Z" transform="translate(-280.912 -154.2)"/><path d="M1915.832,605.646c-1.114-.029-2.229-.009-3.343-.009-1.081,0-2.162-.023-3.242.01-.528.016-.7-.165-.7-.692q.032-3.293,0-6.586c-.005-.53.179-.7.7-.691q3.293.034,6.586,0c.522-.005.706.161.7.694q-.036,3.293,0,6.586C1916.541,605.5,1916.351,605.659,1915.832,605.646Z" transform="translate(-292.966 -166.136)" fill="#b9f07d"/><path d="M1605.464,694.759q5.229.032,10.458,0c1.267-.008,1.8-.54,1.8-1.808q.033-5.23,0-10.459c-.008-1.3-.57-1.82-1.89-1.828-1.692-.011-3.385,0-5.077,0-1.76,0-3.52-.01-5.28,0-1.293.01-1.854.563-1.859,1.862q-.019,5.179,0,10.358C1603.623,694.191,1604.156,694.751,1605.464,694.759Z" transform="translate(-50.147 -232.213)"/><path d="M1618.61,696.346c0-.52.153-.715.693-.709q3.3.036,6.6,0c.547-.006.693.211.69.717-.017,2.167-.021,4.335,0,6.5.006.562-.161.784-.747.764-1.083-.037-2.167-.01-3.251-.01-1.05,0-2.1-.022-3.149.009-.572.017-.859-.1-.847-.77C1618.643,700.682,1618.631,698.514,1618.61,696.346Z" transform="translate(-62.086 -244.143)" fill="#b9f07d"/><path d="M1811.009,780.554c-.009-1.313-.536-1.873-1.837-1.879q-5.229-.026-10.458,0c-1.249.007-1.773.559-1.777,1.827q-.019,5.23,0,10.459c0,1.267.531,1.82,1.777,1.827q5.229.03,10.458,0c1.3-.006,1.829-.567,1.837-1.88.011-1.726,0-3.453,0-5.179S1811.02,782.28,1811.009,780.554Z" transform="translate(-204.083 -310.254)"/><path d="M1819.93,797.763c0,1.082-.021,2.164.009,3.245.015.516-.143.718-.683.713q-3.3-.033-6.591,0c-.531,0-.7-.186-.7-.708q.031-3.3,0-6.592c0-.517.157-.717.692-.712q3.3.031,6.591,0c.536-.005.7.188.688.708C1819.909,795.532,1819.93,796.648,1819.93,797.763Z" transform="translate(-216.062 -322.236)" fill="#b9f07d"/><path d="M1700.305,791.015c.011,1.185.553,1.761,1.739,1.769q5.28.034,10.56,0c1.211-.007,1.764-.55,1.77-1.732q.026-5.331,0-10.663a1.5,1.5,0,0,0-1.681-1.716q-5.33-.038-10.661,0c-1.182.008-1.715.588-1.726,1.78-.016,1.76,0,3.52,0,5.281S1700.289,789.255,1700.305,791.015Z" transform="translate(-127.138 -310.25)"/><path d="M1716.1,793.7c1.081.032,2.163.009,3.245.009s2.164.016,3.245-.006c.479-.01.653.166.649.649-.017,2.231-.021,4.462,0,6.693.006.568-.251.669-.738.665-2.163-.016-4.327-.022-6.49,0-.574.007-.754-.182-.746-.755.029-2.163.038-4.327,0-6.49C1715.246,793.8,1715.521,793.681,1716.1,793.7Z" transform="translate(-139.052 -322.227)" fill="#b9f07d"/><path d="M1702.04,596.759q5.279.024,10.558,0c1.247,0,1.773-.542,1.778-1.81q.019-5.229,0-10.457c0-1.267-.531-1.791-1.782-1.8-1.725-.015-3.451,0-5.177,0-1.794,0-3.587-.013-5.38,0a1.524,1.524,0,0,0-1.732,1.754q-.019,5.279,0,10.559A1.527,1.527,0,0,0,1702.04,596.759Z" transform="translate(-127.136 -154.197)"/><path d="M1715.934,597.684q3.346.029,6.692,0c.484,0,.648.162.638.642-.025,1.149-.008,2.3-.008,3.447,0,1.048-.014,2.1.007,3.143.009.472-.058.745-.644.738-2.23-.029-4.461-.023-6.692,0-.487,0-.636-.161-.632-.64q.03-3.346,0-6.692C1715.291,597.832,1715.455,597.68,1715.934,597.684Z" transform="translate(-139.08 -166.142)" fill="#b9f07d"/><path d="M1811.01,584.444c0-1.2-.549-1.749-1.732-1.754q-5.279-.021-10.558,0c-1.253,0-1.769.531-1.781,1.8-.016,1.726,0,3.452,0,5.178,0,1.76-.012,3.52,0,5.28.011,1.272.526,1.806,1.776,1.811q5.279.02,10.558,0A1.528,1.528,0,0,0,1811.01,595Q1811.03,589.724,1811.01,584.444Z" transform="translate(-204.087 -154.195)"/><path d="M1819.941,605.01c0,.478-.143.645-.632.641-2.231-.02-4.461-.026-6.692,0-.585.008-.654-.264-.645-.737.021-1.081.007-2.163.007-3.245,0-1.115.018-2.231-.008-3.346-.011-.479.152-.647.637-.643q3.346.029,6.692,0c.478,0,.645.146.64.634Q1819.911,601.664,1819.941,605.01Z" transform="translate(-216.064 -166.142)" fill="#b9f07d"/><path d="M1700.3,692.987c0,1.187.537,1.749,1.738,1.758q5.279.038,10.559,0c1.262-.008,1.762-.548,1.774-1.821.016-1.726,0-3.452,0-5.179,0-1.794.016-3.588-.007-5.381a1.511,1.511,0,0,0-1.681-1.709q-5.33-.027-10.661,0c-1.17.005-1.722.581-1.727,1.772Q1700.285,687.706,1700.3,692.987Z" transform="translate(-127.136 -232.202)"/><path d="M1716.014,695.646c1.081.024,2.162.008,3.243.008,1.115,0,2.23.017,3.344-.008.474-.01.656.145.652.634q-.026,3.345,0,6.69c0,.471-.143.657-.633.653q-3.344-.027-6.689,0c-.473,0-.651-.143-.646-.635.02-2.23.026-4.46,0-6.69C1715.275,695.72,1715.532,695.635,1716.014,695.646Z" transform="translate(-139.071 -244.149)" fill="#b9f07d"/><path d="M1811.01,687.676c0-1.726.009-3.452,0-5.178-.009-1.261-.545-1.836-1.763-1.841q-5.279-.023-10.559,0a1.529,1.529,0,0,0-1.749,1.744q-.025,5.28,0,10.56c.005,1.222.508,1.776,1.7,1.785q5.33.041,10.66,0c1.183-.009,1.7-.586,1.708-1.788C1811.021,691.2,1811.01,689.436,1811.01,687.676Z" transform="translate(-204.082 -232.204)"/><path d="M1819.923,702.882c0,.5-.112.724-.669.718-2.2-.026-4.392-.029-6.588,0-.614.009-.729-.248-.715-.782.03-1.114.009-2.23.009-3.345,0-1.014.028-2.028-.011-3.04-.022-.592.13-.834.779-.822,2.162.038,4.324.027,6.486.005.51-.005.716.124.709.676C1819.9,698.49,1819.9,700.686,1819.923,702.882Z" transform="translate(-216.045 -244.122)" fill="#b9f07d"/></g></svg>